<svg width="108" height="108" viewBox="0 0 108 108" fill="none" xmlns="http://www.w3.org/2000/svg">
<mask id="mask0_5_243" style="mask-type:alpha" maskUnits="userSpaceOnUse" x="0" y="0" width="108" height="108">
<rect width="108" height="108" fill="#D9D9D9"/>
</mask>
<g mask="url(#mask0_5_243)">
<path d="M54 76.5C55.275 76.5 56.3438 76.0688 57.2063 75.2063C58.0688 74.3438 58.5 73.275 58.5 72C58.5 70.725 58.0688 69.6562 57.2063 68.7938C56.3438 67.9313 55.275 67.5 54 67.5C52.725 67.5 51.6562 67.9313 50.7938 68.7938C49.9313 69.6562 49.5 70.725 49.5 72C49.5 73.275 49.9313 74.3438 50.7938 75.2063C51.6562 76.0688 52.725 76.5 54 76.5ZM49.5 58.5H58.5V31.5H49.5V58.5ZM54 99C47.775 99 41.925 97.8187 36.45 95.4562C30.975 93.0938 26.2125 89.8875 22.1625 85.8375C18.1125 81.7875 14.9063 77.025 12.5438 71.55C10.1812 66.075 9 60.225 9 54C9 47.775 10.1812 41.925 12.5438 36.45C14.9063 30.975 18.1125 26.2125 22.1625 22.1625C26.2125 18.1125 30.975 14.9063 36.45 12.5438C41.925 10.1812 47.775 9 54 9C60.225 9 66.075 10.1812 71.55 12.5438C77.025 14.9063 81.7875 18.1125 85.8375 22.1625C89.8875 26.2125 93.0938 30.975 95.4562 36.45C97.8187 41.925 99 47.775 99 54C99 60.225 97.8187 66.075 95.4562 71.55C93.0938 77.025 89.8875 81.7875 85.8375 85.8375C81.7875 89.8875 77.025 93.0938 71.55 95.4562C66.075 97.8187 60.225 99 54 99ZM54 90C64.05 90 72.5625 86.5125 79.5375 79.5375C86.5125 72.5625 90 64.05 90 54C90 43.95 86.5125 35.4375 79.5375 28.4625C72.5625 21.4875 64.05 18 54 18C43.95 18 35.4375 21.4875 28.4625 28.4625C21.4875 35.4375 18 43.95 18 54C18 64.05 21.4875 72.5625 28.4625 79.5375C35.4375 86.5125 43.95 90 54 90Z" fill="white"/>
</g>
</svg>
