<svg width="64" height="51" viewBox="0 0 64 51" fill="none" xmlns="http://www.w3.org/2000/svg">
<path d="M40.2123 14.044H42.1452L47.6538 8.53537L47.9244 6.19661C44.7687 3.41127 40.955 1.47639 36.8436 0.574748C32.7322 -0.326894 28.4588 -0.16553 24.4271 1.04359C20.3954 2.25272 16.7385 4.46969 13.8018 7.48508C10.8651 10.5005 8.74564 14.2147 7.64355 18.277C8.25724 18.0255 8.93705 17.9847 9.57642 18.161L20.5937 16.3441C20.5937 16.3441 21.1543 15.4164 21.4442 15.4743C23.8049 12.8817 27.0672 11.2895 30.5635 11.0236C34.0597 10.7577 37.5254 11.8382 40.2509 14.044H40.2123Z" fill="white"/>
<path d="M55.5014 18.2759C54.2352 13.6131 51.6355 9.42135 48.0212 6.21484L40.2897 13.9463C41.9011 15.2629 43.1924 16.9282 44.0662 18.8166C44.9401 20.705 45.3738 22.7672 45.3345 24.8476V26.22C46.2381 26.22 47.1329 26.398 47.9678 26.7438C48.8026 27.0896 49.5611 27.5964 50.2001 28.2354C50.8391 28.8743 51.3459 29.6329 51.6917 30.4677C52.0375 31.3026 52.2155 32.1973 52.2155 33.101C52.2155 34.0046 52.0375 34.8994 51.6917 35.7342C51.3459 36.569 50.8391 37.3276 50.2001 37.9666C49.5611 38.6055 48.8026 39.1124 47.9678 39.4582C47.1329 39.804 46.2381 39.9819 45.3345 39.9819H31.5725L30.2002 41.3736V49.6269L31.5725 50.9993H45.3345C49.1775 51.0292 52.9281 49.8214 56.0314 47.5545C59.1347 45.2876 61.426 42.082 62.5662 38.4119C63.7065 34.7419 63.6351 30.8023 62.3628 27.1759C61.0905 23.5495 58.6847 20.429 55.5014 18.2759Z" fill="white"/>
<path d="M17.7915 50.9239H31.5535V39.9066H17.7915C16.811 39.9064 15.8421 39.6955 14.9502 39.2881L13.0173 39.8873L7.47003 45.3959L6.98682 47.3288C10.0976 49.6778 13.8935 50.9408 17.7915 50.9239Z" fill="white"/>
<path d="M17.7914 15.1837C14.0626 15.206 10.4338 16.3923 7.41191 18.577C4.39004 20.7618 2.12597 23.8358 0.935934 27.3697C-0.254101 30.9036 -0.310674 34.7209 0.774116 38.2886C1.85891 41.8562 4.03089 44.9959 6.98669 47.2692L14.9694 39.2865C13.955 38.8282 13.0669 38.1306 12.3813 37.2536C11.6958 36.3766 11.2332 35.3463 11.0333 34.2513C10.8335 33.1562 10.9023 32.029 11.2338 30.9663C11.5654 29.9037 12.1498 28.9373 12.9369 28.1502C13.724 27.3631 14.6904 26.7787 15.753 26.4471C16.8157 26.1156 17.9429 26.0468 19.038 26.2466C20.133 26.4465 21.1633 26.9091 22.0403 27.5946C22.9173 28.2802 23.6149 29.1683 24.0732 30.1827L32.0559 22.2C30.3804 20.0096 28.2209 18.2365 25.7463 17.0193C23.2717 15.8021 20.5491 15.1739 17.7914 15.1837Z" fill="white"/>
</svg>
